<svg width="38" height="38" viewBox="0 0 38 38" fill="none" xmlns="http://www.w3.org/2000/svg">
<rect x="1" y="1" width="36" height="36" rx="9" stroke="white" stroke-width="2"/>
<path d="M16.6 11.96H12.52V16.26H11.07V11.96H7.01V10.61H11.07V6.34H12.52V10.61H16.6V11.96Z" fill="white"/>
<path d="M15.784 30H14.416C14.2987 30 14.2053 29.9707 14.136 29.912C14.072 29.848 14.0187 29.7787 13.976 29.704L11.936 26.528C11.9147 26.6027 11.8907 26.6773 11.864 26.752C11.8427 26.8213 11.8107 26.8853 11.768 26.944L9.88 29.704C9.82667 29.7787 9.768 29.848 9.704 29.912C9.64533 29.9707 9.56267 30 9.456 30H8.184L11.024 25.84L8.296 21.896H9.664C9.78133 21.896 9.86667 21.9147 9.92 21.952C9.97333 21.9893 10.0213 22.0427 10.064 22.112L12.056 25.152C12.0987 24.9973 12.1653 24.848 12.256 24.704L14 22.144C14.048 22.0693 14.0987 22.0107 14.152 21.968C14.2107 21.92 14.28 21.896 14.36 21.896H15.672L12.944 25.768L15.784 30Z" fill="white"/>
<path d="M23.2 25.408H30.08V26.488H23.2V25.408ZM23.2 22.728H30.08V23.808H23.2V22.728Z" fill="white"/>
<path d="M22.875 9.875H30.285V12.14H22.875V9.875Z" fill="white"/>
</svg>
